<svg version="1.1" id="Warstwa_1" xmlns="http://www.w3.org/2000/svg" xmlns:xlink="http://www.w3.org/1999/xlink" x="0px" y="0px"
     viewBox="0 0 114 81" style="enable-background:new 0 0 114 81;" xml:space="preserve">
<style type="text/css">
	.st0{fill:#FF6319;}
</style>
    <g id="Layer_2">
</g>
    <path class="st0" d="M69,60.2l-30.1-0.4l0.2,11c20.4-0.2,33.5-0.2,34.3,0c0.1,0,0.4,0.1,0.7-0.1c0.4-0.3,0.4-1,0.4-1.4
	c0-1.4,0.5-2.5,1.2-3.7c0.8-1.5,2.1-2.4,2.6-2.8c0.6-0.4,2.5-1.5,5-1.4c4,0.2,6.6,3.5,7.2,5c0.2,0.5,0.7,2,0.7,2.8
	c0,0.1,0,0.3,0.1,0.6c0.1,0.7,0.1,0.8,0.2,0.9c0.2,0.2,0.6,0.1,1,0c0.5-0.1,1.1-0.1,2,0c0-3.7,0-7.3,0-11L69,60.2z"/>
    <path class="st0" d="M39.1,40.1c-1.3-0.1-2.5,0-3.6,0.1c-0.5,0-0.8,0-0.9,0c-1.4,0-3.4,0.3-6.1,1.4C27.8,41.9,27,42.3,26,43
	c-0.8,0.6-1.5,1.3-1.9,1.8c-0.7,0.7-1.4,1.4-2.1,2.3c-2.8,3.6-3.9,7.4-4.2,9.9c0,0-7.7-0.4-13.7,4.3l0.6,1.3l0.5,0.3
	c1.5-1.1,3.2-1.7,5.2-1.7c4.8,0,8.7,3.9,8.7,8.7c0,0.3-0.1,0.6-0.1,0.9l0.4,0.2h19.9c-0.1-3.3-0.1-6.7-0.2-10.1c0-0.1,0-0.2,0-0.4
	C38.9,53.5,38.9,46.7,39.1,40.1z M34.4,56.6H21.2c0,0,2.8-13.5,13.3-13.3L34.4,56.6L34.4,56.6z"/>
    <path class="st0" d="M10,61.9c-4.4,0-7.9,3.6-7.9,7.9c0,4.4,3.6,7.9,7.9,7.9c4.4,0,7.9-3.6,7.9-7.9S14.4,61.9,10,61.9z M10,74.3
	c-2.4,0-4.4-2-4.4-4.4s2-4.4,4.4-4.4s4.4,2,4.4,4.4S12.4,74.3,10,74.3z"/>
    <path class="st0" d="M82.9,61.9c-4.4,0-7.9,3.6-7.9,7.9c0,4.4,3.6,7.9,7.9,7.9c4.4,0,7.9-3.6,7.9-7.9S87.2,61.9,82.9,61.9z
	 M82.9,74.3c-2.4,0-4.4-2-4.4-4.4s2-4.4,4.4-4.4s4.4,2,4.4,4.4S85.3,74.3,82.9,74.3z"/>
    <path class="st0" d="M38.9,59.9v-4.8c0,0.4,0.1,2,1.4,3.3c0.9,0.9,1.9,1.3,2.4,1.4C41.4,59.9,40.1,59.9,38.9,59.9z"/>
    <rect x="38.7" y="25.1" class="st0" width="6.8" height="3.1"/>
    <path class="st0" d="M135.7,9.2"/>
    <path class="st0" d="M32.7,7.5v17.6h12.5h6.2V7.5H32.7z M36.5,23.3h-1.4V9.2h1.4V23.3z M40.7,23.3h-1.4V9.2h1.4V23.3z M44.9,23.3h-1.4V9.2h1.4
	V23.3z M49.1,23.3h-1.4V9.2h1.4V23.3z"/>
    <polygon class="st0" points="45.4,28.2 90.8,36 90.8,48.5 60.8,52.5 60.8,60.1 45.4,60.1 45.4,46.7 84.6,43.3 84.7,40.1 39.1,33.7
	38.7,28.2 "/>
</svg>
