<svg xmlns="http://www.w3.org/2000/svg" xmlns:xlink="http://www.w3.org/1999/xlink" version="1.1" x="0px" y="0px" width="114px" height="81px" viewBox="0 0 114 81" enable-background="new 0 0 114 81" xml:space="preserve" class="replace-inline svg-icon portrait replaced-svg">
<g id="Layer_2">
</g>
    <g id="Layer_1">
	<g>
		<path fill="#FF6319" d="M110.599,67.925l-4.875,2.89h-2.015c0.048-0.371,0.113-0.737,0.113-1.121c0-4.829-3.915-8.743-8.744-8.743    s-8.743,3.914-8.743,8.743c0,0.384,0.065,0.75,0.113,1.121H61.503l-0.428-0.243c0.029-0.294,0.088-0.578,0.088-0.878    c0-4.829-3.915-8.743-8.744-8.743c-1.949,0-3.732,0.659-5.188,1.739l-0.469-0.265l-0.566-1.276    c6.095-4.677,13.748-4.252,13.748-4.252c2.636-10.517,6.519-11.905,6.519-11.905c-0.141-2.977,2.75-4.279,2.75-4.279l9.015-0.256    l-8.221-5.812h-4.818l-3.26-6.662L41.236,12.677l-1.134-0.284l-2.693,2.694l-5.811,1.416l-0.992,1.418l0.992,1.842l-1.136,0.992    l-3.401,1.135l-0.282,1.701H5.519v-1.985h17.773V10.835l0.624-4.82h1.134l0.622,1.531l0.058,3.459l3.799,3.74l9.128-9.58    l62.589,44.221l9.418,0.736L110.599,67.925 M63.487,56.585h13.267V43.318C66.266,43.093,63.487,56.585,63.487,56.585     M86.278,51.114l-0.17,4.848h9.864l1.19,0.849l2.438-1.587l-14.173-9.807L86.278,51.114z"></path>
        <path fill="#FF6319" d="M52.3,61.917c-4.367,0-7.922,3.554-7.922,7.92c0,4.369,3.555,7.922,7.922,7.922c4.366,0,7.922-3.553,7.922-7.922    C60.222,65.471,56.666,61.917,52.3,61.917z M52.3,74.259c-2.438,0-4.422-1.983-4.422-4.422c0-2.437,1.984-4.42,4.422-4.42    c2.437,0,4.422,1.983,4.422,4.42C56.722,72.275,54.736,74.259,52.3,74.259z"></path>
        <path fill="#FF6319" d="M95.05,61.917c-4.367,0-7.922,3.554-7.922,7.92c0,4.369,3.555,7.922,7.922,7.922c4.366,0,7.922-3.553,7.922-7.922    C102.972,65.471,99.416,61.917,95.05,61.917z M95.05,74.259c-2.438,0-4.422-1.983-4.422-4.422c0-2.437,1.984-4.42,4.422-4.42    c2.437,0,4.422,1.983,4.422,4.42C99.472,72.275,97.486,74.259,95.05,74.259z"></path>
	</g>
</g>
</svg>