<svg xmlns="http://www.w3.org/2000/svg" xmlns:xlink="http://www.w3.org/1999/xlink" version="1.1" id="Layer_1" x="0px" y="0px" width="61.75px" height="82px" viewBox="-11.75 2 61.75 82" enable-background="new -11.75 2 61.75 82" xml:space="preserve" class="replace-inline svg-icon portrait replaced-svg">
<g id="Layer_2">
</g>
    <g>
	<path fill="#FF6319" d="M42.645,70.712c1.056,0,2.008,0.392,2.746,1.015v-5.031h-1.836V65.46l-14.211-4.804l14.223-4.823v-1.656   l-14.237-4.812l14.26-4.837v-1.656l-14.181-4.793l14.181-4.808v-1.185h0.83c0,0,0.972,0,0.972-0.945V7.751c0,0,0-0.945-0.972-0.945   H7.433c0,0-0.974,0-0.974,0.945V31.14c0,0,0,0.945,0.974,0.945h1.595v1.214l14.179,4.788l-14.18,4.815v1.656l14.238,4.807   l-14.26,4.841v1.655l14.21,4.799L8.994,65.49v1.205H6.459v1.972H3.615c-3.507,0-6.36-4.149-6.36-9.25v-35.95   c0.323-0.01,0.581-0.022,0.633-0.039c2.091-0.63,3.479-2.496,3.488-4.675c0.007-1.171,0.005-2.344,0.013-3.516   c0.004-0.548,0.021-1.095,0.033-1.656c-0.637,0.009-1.221,0.014-1.83,0.021c0.007-0.654,0.015-1.253,0.019-1.853   c0.007-1.005,0.007-2.011,0.015-3.016C-0.373,8.422-0.477,8.163-0.749,8c-0.268-0.163-0.542-0.168-0.818-0.005   c-0.299,0.177-0.384,0.45-0.384,0.771c-0.004,1.344-0.008,2.69-0.008,4.036c-0.001,0.248,0.018,0.498,0.025,0.733   c-1.062-0.003-2.065-0.005-3.097-0.007c0.006-0.521,0.016-1.049,0.019-1.576C-5.006,10.847-5,9.739-5.007,8.632   c-0.003-0.44-0.374-0.78-0.802-0.769C-6.23,7.875-6.565,8.218-6.568,8.652c-0.008,0.774-0.008,1.548-0.011,2.323   c-0.001,0.852-0.002,1.702-0.003,2.62c-0.607-0.015-1.196-0.028-1.792-0.042c-0.002,1.729-0.016,3.436-0.007,5.142   c0.012,1.732,0.735,3.101,2.153,4.102c0.464,0.328,1.554,0.703,1.554,0.703s0.176-0.001,0.428-0.004v35.921   c0,5.928,3.526,10.75,7.86,10.75h2.844v1.556c0.737-0.621,1.687-1.011,2.737-1.011c2.319,0,4.198,1.825,4.198,4.076   c0,1.076-0.439,2.046-1.141,2.774h27.332c-0.701-0.729-1.14-1.698-1.14-2.774C38.447,72.537,40.326,70.712,42.645,70.712z    M7.31,9.523L7.31,9.523c0.001-0.945,0.975-0.945,0.975-0.945h35.279c0.976,0,0.976,0.945,0.976,0.945v7.324   c0,0.945-0.976,0.945-0.976,0.945H8.284c-0.974,0-0.974-0.945-0.974-0.945V9.523z M8.284,23.996c-0.973,0-0.973-0.945-0.973-0.945   v-3.393c0-0.945,0.974-0.945,0.974-0.945h35.279c0.976,0,0.976,0.945,0.976,0.945v3.393c0,0.945-0.976,0.945-0.976,0.945H8.284z    M13.194,32.585H39.35L26.3,37.01L13.194,32.585z M12.848,43.727l13.466-4.574L39.768,43.7l-13.467,4.567L12.848,43.727z    M12.825,55.031l13.467-4.573l13.453,4.548l-13.468,4.567L12.825,55.031z M13.167,66.195l13.112-4.454l13.175,4.454H13.167z"></path>
        <path fill="#FF6319" d="M9.131,71.148c-2.037,0-3.694,1.646-3.694,3.67c0,2.023,1.657,3.67,3.694,3.67   c2.038,0,3.694-1.646,3.694-3.67C12.825,72.794,11.169,71.148,9.131,71.148z M9.131,76.959c-1.188,0-2.156-0.96-2.156-2.143   c0-1.181,0.967-2.142,2.156-2.142s2.156,0.961,2.156,2.142C11.287,75.999,10.32,76.959,9.131,76.959z"></path>
        <path fill="#FF6319" d="M42.712,71.148c-2.037,0-3.694,1.646-3.694,3.67c0,2.023,1.657,3.67,3.694,3.67   c2.038,0,3.694-1.646,3.694-3.67C46.406,72.794,44.75,71.148,42.712,71.148z M42.712,76.959c-1.188,0-2.155-0.96-2.155-2.143   c0-1.181,0.967-2.142,2.155-2.142s2.156,0.961,2.156,2.142C44.868,75.999,43.9,76.959,42.712,76.959z"></path>
</g>
</svg>