<svg xmlns="http://www.w3.org/2000/svg" xmlns:xlink="http://www.w3.org/1999/xlink" version="1.1" x="0px" y="0px" width="80px" height="80px" viewBox="-15 0 70 85" enable-background="new 0 0 50 84" xml:space="preserve" class="replace-inline svg-icon portrait replaced-svg">
<g id="Layer_2">
</g>
    <g id="Layer_1">
	<g>
		<path fill="#ff0000" d="M42.645,70.712c1.055,0,2.007,0.391,2.745,1.015v-5.032h-1.836l0-1.235l-14.21-4.804l14.223-4.823l0-1.656l-14.238-4.813    l14.26-4.837l0-1.656l-14.181-4.793l14.181-4.808l0-1.185h0.83c0,0,0.972,0,0.972-0.945V7.751c0,0,0-0.945-0.972-0.945H7.433    c0,0-0.974,0-0.974,0.945V31.14c0,0,0,0.945,0.974,0.945h1.595l0,1.214l14.179,4.788l-14.18,4.815l0,1.656l14.238,4.807    L9.005,54.206l0,1.656l14.21,4.798L8.994,65.49l0,1.205H6.459v5.027c0.737-0.621,1.687-1.01,2.737-1.01    c2.319,0,4.198,1.825,4.198,4.076c0,1.076-0.439,2.046-1.141,2.775h27.332c-0.701-0.729-1.139-1.699-1.139-2.775    C38.447,72.537,40.326,70.712,42.645,70.712z M7.311,9.523c0-0.945,0.974-0.945,0.974-0.945h35.28    c0.975,0,0.975,0.945,0.975,0.945v7.324c0,0.945-0.975,0.945-0.975,0.945H8.284c-0.974,0-0.974-0.945-0.974-0.945V9.523z     M7.311,23.051v-3.393c0-0.945,0.974-0.945,0.974-0.945h35.28c0.975,0,0.975,0.945,0.975,0.945v3.393    c0,0.945-0.975,0.945-0.975,0.945H8.284C7.311,23.996,7.311,23.051,7.311,23.051z M13.194,32.585h26.155L26.3,37.01L13.194,32.585    z M12.848,43.726l13.466-4.573l13.453,4.547l-13.466,4.567L12.848,43.726z M12.825,55.031l13.467-4.573l13.453,4.548    l-13.467,4.567L12.825,55.031z M26.28,61.741l13.174,4.454H13.167L26.28,61.741z"></path>
        <path fill="#ff0000" d="M9.131,71.148c-2.037,0-3.694,1.646-3.694,3.67c0,2.024,1.657,3.67,3.694,3.67c2.038,0,3.694-1.646,3.694-3.67    C12.825,72.794,11.169,71.148,9.131,71.148z M9.131,76.959c-1.188,0-2.156-0.96-2.156-2.142c0-1.181,0.967-2.142,2.156-2.142    c1.189,0,2.156,0.961,2.156,2.142C11.287,75.999,10.32,76.959,9.131,76.959z"></path>
        <path fill="#ff0000" d="M42.712,71.148c-2.037,0-3.694,1.646-3.694,3.67c0,2.024,1.657,3.67,3.694,3.67c2.038,0,3.694-1.646,3.694-3.67    C46.406,72.794,44.75,71.148,42.712,71.148z M42.712,76.959c-1.188,0-2.156-0.96-2.156-2.142c0-1.181,0.967-2.142,2.156-2.142    c1.189,0,2.156,0.961,2.156,2.142C44.868,75.999,43.901,76.959,42.712,76.959z"></path>
	</g>
</g>
</svg>