<svg xmlns="http://www.w3.org/2000/svg" xmlns:xlink="http://www.w3.org/1999/xlink" version="1.1" id="Layer_1" x="0px" y="0px" width="98px" height="74px" viewBox="0 0 98 74" enable-background="new 0 0 98 74" xml:space="preserve" class="replace-inline svg-icon portrait replaced-svg">
<g id="Layer_2">
</g>
    <g>
	<path fill="#FF0000" d="M62.459,63.859c-1.968,0-3.566,1.601-3.566,3.563c0,1.968,1.6,3.57,3.566,3.57s3.566-1.603,3.566-3.57   C66.025,65.46,64.428,63.859,62.459,63.859z M62.459,69.202c-0.979,0-1.775-0.798-1.775-1.777c0-0.977,0.797-1.772,1.775-1.772   s1.775,0.797,1.775,1.772C64.234,68.404,63.438,69.202,62.459,69.202z"></path>
        <path fill="#FF0000" d="M92.547,63.859c-1.968,0-3.566,1.601-3.566,3.563c0,1.968,1.6,3.57,3.566,3.57s3.566-1.603,3.566-3.57   C96.113,65.46,94.516,63.859,92.547,63.859z M92.547,69.202c-0.979,0-1.775-0.798-1.775-1.777c0-0.977,0.797-1.772,1.775-1.772   s1.775,0.797,1.775,1.772C94.322,68.404,93.525,69.202,92.547,69.202z"></path>
        <path fill="#FF0000" d="M92.309,63.245c1.039,0,1.979,0.41,2.686,1.065v-2.03l-11.588-2.288H81.17v-2.196h8.232v-15.36h-2.287   l-5.438,1.416l-5.102,2.396L53.18,38.645l3.73-2.451l29.482-5.319l-0.024-0.14h0.024v-8.448h-4.645L30.91,3.024l-0.859-0.35   l-0.008,0.021l-0.049-0.021l-0.859,2.269l-7.863,19.461l-6.418-1.406v-4.016l3.558-3.76V11.97H4.69   C1.032,25.411,7.282,28.841,7.282,28.841h7.928v-3.2l7.928,2.643l0.313-0.825l0.011,0.004l8.362-20.696l47.363,17.945L44.431,33.12   l0.004,0.016l-0.004-0.002c-4.32,5.718-1.605,10.875-1.605,10.875l0.062-0.015l25.451,8.27v5.532h4.446v2.196h-5.031L57.54,62.686   v1.946H19.907c-0.011-0.323-0.022-0.58-0.038-0.633c-0.631-2.091-2.496-3.479-4.676-3.489c-1.17-0.006-2.344-0.004-3.516-0.012   c-0.547-0.004-1.094-0.021-1.656-0.033c0.009,0.637,0.014,1.221,0.021,1.83c-0.654-0.008-1.253-0.016-1.853-0.02   c-1.005-0.006-2.011-0.006-3.016-0.014c-0.312-0.002-0.571,0.103-0.734,0.374c-0.163,0.268-0.168,0.542-0.005,0.818   c0.177,0.299,0.45,0.384,0.771,0.384c1.344,0.004,2.69,0.008,4.036,0.008c0.248,0.001,0.498-0.018,0.733-0.025   c-0.003,1.062-0.005,2.065-0.007,3.097c-0.521-0.006-1.049-0.016-1.576-0.019c-1.106-0.005-2.214-0.012-3.321-0.004   c-0.44,0.003-0.78,0.374-0.769,0.802c0.012,0.421,0.354,0.756,0.789,0.759c0.774,0.008,1.548,0.008,2.323,0.011   c0.852,0.001,1.702,0.002,2.62,0.003c-0.015,0.607-0.028,1.196-0.042,1.792c1.729,0.002,3.436,0.016,5.141,0.007   c1.732-0.012,3.102-0.735,4.102-2.153c0.328-0.464,0.703-1.554,0.703-1.554s-0.001-0.176-0.004-0.429H57.54v2.652h1.267   c-0.197-0.476-0.312-0.994-0.312-1.541c0-2.187,1.771-3.957,3.957-3.957c2.185,0,3.957,1.771,3.957,3.957   c0,0.547-0.112,1.065-0.313,1.541h22.59c-0.213-0.484-0.334-1.021-0.334-1.583C88.352,65.016,90.122,63.245,92.309,63.245z    M7.841,27.57c0,0-4.472-4.826-1.828-14.076h7.367l0.204,14.076H7.841z M80.129,26.392v2.675l-28.007,5.051l0.002,0.01h-0.002   l-2.39,2.931l-2.358-2.741L80.129,26.392z M72.328,48.242h-0.967l-1.232,1.421l-22.125-7.188l3.619-2.789l23.005,7.477   L72.328,48.242z"></path>
</g>
</svg>