<svg xmlns="http://www.w3.org/2000/svg" xmlns:xlink="http://www.w3.org/1999/xlink" version="1.1" x="0px" y="0px" width="98px" height="74px" viewBox="0 0 98 74" enable-background="new 0 0 98 74" xml:space="preserve" class="replace-inline svg-icon portrait replaced-svg">
<g id="Layer_2">
</g>
<g id="Layer_1">
	<g>
		<path fill="#FF6319" d="M62.459,63.859c-1.968,0-3.567,1.601-3.567,3.564c0,1.968,1.6,3.57,3.567,3.57s3.567-1.603,3.567-3.57    C66.026,65.46,64.427,63.859,62.459,63.859z M62.459,69.202c-0.979,0-1.775-0.798-1.775-1.777c0-0.977,0.796-1.773,1.775-1.773    s1.775,0.797,1.775,1.773C64.234,68.404,63.438,69.202,62.459,69.202z"></path>
		<path fill="#FF6319" d="M92.547,63.859c-1.968,0-3.567,1.601-3.567,3.564c0,1.968,1.6,3.57,3.567,3.57s3.567-1.603,3.567-3.57    C96.114,65.46,94.515,63.859,92.547,63.859z M92.547,69.202c-0.979,0-1.775-0.798-1.775-1.777c0-0.977,0.796-1.773,1.775-1.773    s1.775,0.797,1.775,1.773C94.322,68.404,93.526,69.202,92.547,69.202z"></path>
		<path fill="#FF6319" d="M83.406,59.992H81.17v-2.196h8.232V42.435h-2.287l-5.438,1.416l-5.102,2.396l-23.396-7.603l3.731-2.45l29.482-5.319    l-0.024-0.14h0.024v-8.448h-4.644L30.91,3.024l-0.859-0.35l-0.008,0.021l-0.049-0.021l-0.859,2.269l-7.863,19.461l-6.418-1.406    v-4.016l3.558-3.76V11.97H4.69C1.032,25.411,7.282,28.841,7.282,28.841h7.928v-3.2l7.928,2.643l0.313-0.825l0.011,0.004    l8.362-20.696l47.363,17.945L44.431,33.12l0.004,0.016l-0.004-0.002c-4.32,5.717-1.605,10.875-1.605,10.875l0.062-0.015    l25.451,8.27v5.532h4.446v2.196h-5.031L57.54,62.685v6.099h1.267c-0.198-0.476-0.312-0.994-0.312-1.541    c0-2.186,1.771-3.957,3.957-3.957c2.185,0,3.957,1.771,3.957,3.957c0,0.547-0.112,1.065-0.313,1.541h22.59    c-0.213-0.484-0.335-1.021-0.335-1.583c0-2.185,1.771-3.956,3.957-3.956c1.04,0,1.979,0.41,2.686,1.065v-2.03L83.406,59.992z     M7.841,27.57c0,0-4.472-4.826-1.828-14.076h7.367l0.204,14.076H7.841z M80.129,26.392v2.675l-28.007,5.051l0.002,0.01h-0.002    l-2.389,2.931l-2.359-2.741L80.129,26.392z M51.623,39.685l23.005,7.477l-2.3,1.08h-0.967l-1.232,1.421l-22.125-7.189    L51.623,39.685z"></path>
	</g>
</g>
</svg>