<svg xmlns="http://www.w3.org/2000/svg" xmlns:xlink="http://www.w3.org/1999/xlink" version="1.1" id="Layer_1" x="0px" y="0px" width="50px" height="84px" viewBox="0 0 50 84" enable-background="new 0 0 50 84" xml:space="preserve" class="replace-inline svg-icon portrait replaced-svg">
<g id="Layer_2">
</g>
    <g id="Layer_3">
	<g>
		<path fill="none" d="M11.355,75.007c0-0.255,0.051-0.493,0.123-0.722c-0.029-0.303-0.112-0.586-0.243-0.846    c-0.285,0.457-0.457,0.988-0.457,1.566c0,0.354,0.072,0.689,0.189,1c0.182-0.226,0.321-0.484,0.411-0.77    C11.372,75.162,11.355,75.086,11.355,75.007z"></path>
        <path fill="#ff0000" d="M35.729,70.948c-1.863,0-3.381,1.516-3.381,3.382c0,1.865,1.518,3.382,3.381,3.382c1.865,0,3.383-1.517,3.383-3.382    C39.111,72.464,37.596,70.948,35.729,70.948z"></path>
        <path fill="#ff0000" d="M11.236,73.443c-0.396-0.781-1.197-1.324-2.13-1.324c-1.322,0-2.398,1.076-2.398,2.398s1.076,2.396,2.398,2.396    c0.756,0,1.422-0.357,1.862-0.906c-0.117-0.311-0.189-0.646-0.189-1C10.779,74.432,10.95,73.896,11.236,73.443z"></path>
        <path fill="#ff0000" d="M13.752,72.609c-0.754,0-1.42,0.358-1.861,0.904c-0.182,0.227-0.322,0.487-0.413,0.772    c-0.074,0.228-0.124,0.467-0.124,0.722c0,0.081,0.017,0.155,0.023,0.233c0.029,0.299,0.113,0.582,0.243,0.844    c0.396,0.778,1.198,1.321,2.13,1.321c1.322,0,2.397-1.075,2.397-2.398C16.149,73.688,15.075,72.609,13.752,72.609z"></path>
	</g>
</g>
    <g id="Layer_4">
</g>
    <path fill="#ff0000" d="M47.582,33.345l-0.075-12.843c0-0.149-0.001-0.393-0.001-0.542v-0.193c0-0.149,0-0.393,0-0.542V8.516  c0-0.148,0-0.392,0-0.541V7.848c0-0.149,0-0.297,0-0.329c0-0.031-0.023-0.11-0.055-0.177c-0.026-0.065-0.307-0.119-0.458-0.119  h-9.886c-0.147,0-0.312,0.013-0.362,0.029c-0.048,0.016-0.251,0.114-0.397,0.114h-8.408c-0.147,0-0.295,0-0.323,0  c-0.027,0-0.175,0-0.322,0h-3.582c-0.149,0-0.295,0-0.323,0c-0.029,0-0.175,0-0.324,0h-8.399c-0.148,0-0.297-0.032-0.328-0.072  c-0.033-0.039-0.285-0.071-0.434-0.071H4.809c-0.148,0-0.295-0.015-0.323-0.034c-0.029-0.02-0.13-0.033-0.143-0.033  c-0.014,0-0.142,0-0.287,0s-0.27,0-0.277,0c-0.007,0-0.039,0.009-0.047,0.009c-0.008,0-0.051,0.013-0.072,0.014  C3.639,7.181,3.576,7.224,3.555,7.237C3.535,7.25,3.48,7.312,3.469,7.328c-0.01,0.016-0.027,0.048-0.038,0.071  c-0.012,0.024-0.019,0.104-0.019,0.12c0,0.017,0,0.128,0,0.249s0,0.223,0,0.229S3.419,8.02,3.416,8.025  C3.414,8.03,3.412,8.089,3.412,8.145s0.006,0.133,0.014,0.172c0.008,0.04,0.072,0.232,0.072,0.38v23.03c0,0.148,0,0.273,0,0.276  c0,0.002-0.001,0.127-0.003,0.276L3.48,33.424c-0.011,0.065-0.02,0.132-0.02,0.2v2.905c0,0.743,0.609,1.352,1.353,1.352h18.834  v12.221c-0.027,0.01-0.047,0.029-0.077,0.029h-0.114c-0.149,0-0.271,0.124-0.271,0.271v12.34c0,0.023-0.02,0.041-0.026,0.061  l-9.052,0.018c-0.075,0-0.19,0.025-0.258,0.06L9.15,65.113c-0.066,0.029-0.122,0.117-0.122,0.191v5.077  c0,0.075,0.042,0.181,0.095,0.231l0.254,0.252c0.052,0.055,0.083,0.156,0.068,0.229l-0.068,0.342  c-0.012,0.062-0.014,0.107-0.008,0.131c0.949,0.086,1.767,0.606,2.249,1.373c0.541-0.56,1.296-0.912,2.134-0.912  c1.64,0,2.975,1.336,2.975,2.977c0,0.414-0.086,0.807-0.239,1.164c0.016,0.009,0.029,0.021,0.048,0.021l15.329-0.041  c0.033,0,0.064-0.017,0.09-0.037c-0.26-0.543-0.417-1.144-0.417-1.784c0-2.312,1.881-4.188,4.19-4.188  c2.311,0,4.188,1.877,4.188,4.188c0,0.341-0.052,0.669-0.13,0.987c0.016,0,0.033-0.012,0.046-0.012l0.658-0.005  c0.073,0,0.136-0.062,0.136-0.138v-8.766c0-0.076-0.038-0.185-0.086-0.242l-2.664-3.275c-0.047-0.057-0.146-0.102-0.221-0.102  l-5.652,0.01c-0.002-0.025-0.01-0.045-0.01-0.077v-1.237c0-0.146,0-0.272,0-0.279c0-0.004-0.008-0.021-0.004-0.024  c0.003-0.008,0.004-0.128,0.004-0.256c0-0.13-0.001-0.249-0.004-0.265c-0.004-0.021-0.022-0.073-0.029-0.09  c-0.007-0.013-0.035-0.041-0.037-0.041s-0.008-0.014-0.01-0.017c-0.004-0.002-0.01-0.007-0.018-0.011  c-0.006-0.004-0.01-0.008-0.01-0.012c0-0.002-0.01-0.006-0.01-0.01c0-0.002-0.018-0.012-0.021-0.02  c-0.008-0.012-0.049-0.028-0.065-0.033c-0.021-0.006-0.194-0.012-0.342-0.012h-0.271c-0.146,0-0.314,0.01-0.365,0.021  c0,0,0,0-0.03,0.027c-0.011,0.012-0.011,0.012-0.011,0.012c-0.016,0.011-0.03,0.021-0.033,0.021  c-0.002,0.002-0.006,0.009-0.01,0.012c-0.002,0.004-0.006,0.007-0.01,0.011c-0.002,0.002-0.013,0.015-0.023,0.021  c0,0,0,0-0.01,0.013c-0.009,0.01-0.009,0.01-0.009,0.01c0,0.013-0.002,0.021-0.005,0.022c-0.003,0.004-0.005,0.006-0.005,0.006  s0,0.002,0,0.005c0,0.002-0.001,0.006-0.005,0.01c-0.003,0.003-0.01,0.021-0.01,0.031c-0.002,0.012-0.008,0.153-0.008,0.284  c0,0.129,0,0.236,0,0.242c0,0.007,0.008,0.023,0.008,0.028c-0.002,0.005-0.008,0.14-0.008,0.29v1.264c0,0.021-0.017,0.03-0.02,0.054  l-2.76,0.003c-0.006-0.021-0.021-0.031-0.021-0.057V50.402c0-0.146-0.121-0.271-0.271-0.271h-0.14c-0.021,0-0.031-0.018-0.051-0.021  V37.882h18.832c0.743,0,1.354-0.611,1.354-1.354v-2.905c0-0.095-0.014-0.188-0.029-0.279L47.582,33.345z M4.627,14.725l0.077-3.226  V8.784c0-0.15,0-0.275,0-0.28c0-0.006,0.112-0.019,0.261-0.019h1.961l0.92-0.001h3.775c0.149,0,0.271,0.122,0.271,0.271v10.413  c0,0.148-0.122,0.27-0.271,0.27H5.144c-0.149,0-0.286,0.002-0.303,0.005c-0.019,0.002-0.065,0.016-0.067,0.016  c-0.003,0-0.013-0.004-0.023-0.009c0,0,0,0-0.01,0c-0.009,0-0.009,0-0.009,0c-0.011,0-0.021,0-0.024,0  c-0.002,0-0.009-0.002-0.014-0.006c-0.006-0.002-0.029-0.005-0.043-0.005c-0.013,0-0.024-0.121-0.024-0.27V14.725z M11.623,31.741  H4.895c-0.148,0-0.271-0.121-0.271-0.271V20.558c0-0.147,0.011-0.27,0.024-0.27c0.014,0,0.026,0,0.028,0  c0.003,0,0.019-0.002,0.034-0.004c0.017-0.005,0.06-0.016,0.062-0.016c0.003,0,0.02,0.004,0.038,0.009  c0.019,0.006,0.184,0.011,0.333,0.011h6.479c0.149,0,0.271,0.121,0.271,0.27V31.47h0.001C11.894,31.619,11.772,31.741,11.623,31.741  z M13.019,9.471c0-0.148,0-0.264,0-0.257c0,0.008,0.013,0.036,0.014,0.053c0.002,0.016,0.033-0.79,0.037-0.784l1.614,0.001h7.205  c0.149,0,0.271,0.122,0.271,0.271v10.279c0,0.149-0.121,0.271-0.271,0.271H13.29c-0.149,0-0.271-0.122-0.271-0.271V9.471z   M22.161,31.316c0,0.149-0.121,0.271-0.271,0.271h-8.599c-0.149,0-0.271-0.121-0.271-0.271V20.703c0-0.149,0.121-0.271,0.271-0.271  h8.599c0.149,0,0.271,0.121,0.271,0.271V31.316z M37.994,31.316c0,0.149-0.121,0.271-0.271,0.271h-8.609  c-0.146,0-0.27-0.121-0.27-0.271V20.703c0-0.149,0.121-0.271,0.27-0.271h8.609c0.149,0,0.271,0.121,0.271,0.271V31.316z   M37.994,19.034c0,0.149-0.121,0.271-0.271,0.271h-8.609c-0.146,0-0.27-0.122-0.27-0.271V8.754c0-0.148,0.121-0.271,0.27-0.271  h7.216c0,0.001,1.657,0.001,1.659,0.001c0.004,0,0.006,0.122,0.006,0.271V19.034z M46.105,31.741h-6.724  c-0.149,0-0.272-0.121-0.272-0.271V20.558c0-0.147,0.123-0.27,0.272-0.27h6.478c0.147,0,0.271,0,0.275,0  c0.002,0,0.02-0.002,0.032-0.004c0.017-0.005,0.06-0.016,0.062-0.016s0.021,0.004,0.039,0.009c0.019,0.006,0.07,0.011,0.086,0.011  s0.021,0.121,0.021,0.27V31.47h0.002C46.377,31.619,46.256,31.741,46.105,31.741z M46.355,19.438c-0.015,0-0.041,0.002-0.061,0.005  c-0.021,0.002-0.062,0.016-0.064,0.016c-0.004,0-0.021-0.004-0.039-0.009c-0.02-0.007-0.183-0.011-0.334-0.011H39.38  c-0.147,0-0.271-0.121-0.271-0.27V8.754c0-0.148,0.121-0.271,0.271-0.271h6.726c0.148,0,0.271,0.122,0.271,0.271v10.414h0.001  C46.377,19.316,46.365,19.438,46.355,19.438z"></path>
</svg>