<svg xmlns="http://www.w3.org/2000/svg" xmlns:xlink="http://www.w3.org/1999/xlink" version="1.1" x="0px" y="0px" width="64px" height="82px" viewBox="0 0 64 82" enable-background="new 0 0 64 82" xml:space="preserve" class="replace-inline svg-icon portrait replaced-svg">
<g id="Layer_2">
</g>
<g id="Layer_1">
	<g>
		<path fill="#ff0000" d="M34.345,70.96c-1.94,0-3.515,1.574-3.515,3.515c0,1.942,1.574,3.515,3.515,3.515c1.941,0,3.516-1.573,3.516-3.515    C37.86,72.534,36.286,70.96,34.345,70.96z M34.345,76.233c-0.971,0-1.758-0.787-1.758-1.758c0-0.97,0.787-1.757,1.758-1.757    c0.972,0,1.758,0.787,1.758,1.757C36.103,75.446,35.316,76.233,34.345,76.233z"></path>
		<path fill="#ff0000" d="M56.753,70.96c-1.942,0-3.515,1.574-3.515,3.515c0,1.942,1.572,3.515,3.515,3.515c1.941,0,3.515-1.573,3.515-3.515    C60.268,72.534,58.694,70.96,56.753,70.96z M56.753,76.233c-0.971,0-1.758-0.787-1.758-1.758c0-0.97,0.787-1.757,1.758-1.757    s1.757,0.787,1.757,1.757C58.51,75.446,57.724,76.233,56.753,76.233z"></path>
		<path fill="#ff0000" d="M54.794,66.751V46.368h-6.147V36.139h-0.619V29.37h-0.362V19.141h1.911v-3.359h-9.409l-0.001-0.001l-0.006,0.001h-0.504    v0.086l-26.144,4.468v-1.247l6.562-10.385l-1.809-3.72H3.748v22.268h9.765v-0.516l26.254-4.57l0.975,1.161h0.93l2.17-2.79    l0.259-0.634v9.468h-0.465v6.769h-0.466v10.229h-0.671v22.553h-7.802v1.447c0,0,1.485-0.019,2.635,1.033    c1.149,1.053,1.085,2.635,1.085,2.635v2.222H52.47v-1.912c0,0,0.335-2.738,2.324-3.515c2.758-1.335,4.651,0.674,4.651,0.674h0.516    v-4.754H54.794z M12.599,14.62h-7.61v-1.086h8.317L12.599,14.62z M11.668,6.224l3.034,5.167l-0.857,1.316H4.988V6.224H11.668z     M12.273,18.73v3.975H4.988v-7.362h7.465l-0.169,3.37L12.273,18.73z M13.513,25.289v-3.247l0.591-0.098l-0.003,0.001l17.313,0.331    L13.513,25.289z M39.656,20.89l-1.472,0.248l-17.54-0.274l19.012-3.145V20.89z"></path>
	</g>
</g>
</svg>