<svg xmlns="http://www.w3.org/2000/svg" xmlns:xlink="http://www.w3.org/1999/xlink" version="1.1" x="0px" y="0px" width="123px" height="82px" viewBox="0 0 123 82" enable-background="new 0 0 123 82" xml:space="preserve" class="replace-inline svg-icon portrait replaced-svg">
<g id="Layer_2">
</g>
    <g id="Layer_1">
	<g>
		<path fill="#ff0000" d="M109.297,55.486h-6.42L93.869,45.44l15.428,8.271V55.486 M12.976,19.079H7.717v-7.683h5.259V19.079z M119.992,65.826    v-3.005h-0.684l-1.024-7.308h-2.254v-4.303L52.312,17.474l-1.845-2.049l-5.872-2.937l-3.687-0.204l-3.074-3.689L34.555,6.82    L21.238,18.772l-6.487-2.187v-3.005h2.663l2.254-2.595V9.551L5.735,9.484v11.473h8.605l2.799-0.205l0.89-0.616l2.526,2.324    l1.845-0.069l11.883-10.585l7.784,7.649l1.981-0.752l44.528,23.903l11.338,12.771h-4.098l-10.791,4.985l1.57,3.481v1.914h4.916    v2.868h-5.873v0.666c1.395,0.917,2.323,2.473,2.379,4.251h16.717c0.059-1.88,1.097-3.509,2.622-4.4v-0.517h-7.989v-2.8H119.992z"></path>
        <path fill="#ff0000" d="M84.813,74.035c0,1.282-1.029,2.322-2.303,2.322c-1.27,0-2.299-1.04-2.299-2.322s1.029-2.322,2.299-2.322    C83.784,71.713,84.813,72.753,84.813,74.035 M87.51,74.035c0-2.761-2.237-5-5-5c-2.759,0-4.997,2.239-4.997,5s2.238,5,4.997,5    C85.273,79.035,87.51,76.796,87.51,74.035"></path>
        <path fill="#ff0000" d="M112.609,74.035c0,1.282-1.029,2.322-2.301,2.322c-1.271,0-2.303-1.04-2.303-2.322s1.032-2.322,2.303-2.322    C111.58,71.713,112.609,72.753,112.609,74.035 M115.308,74.035c0-2.761-2.238-5-5-5c-2.761,0-5,2.239-5,5s2.239,5,5,5    C113.07,79.035,115.308,76.796,115.308,74.035"></path>
	</g>
</g>
</svg>