<svg xmlns="http://www.w3.org/2000/svg" xmlns:xlink="http://www.w3.org/1999/xlink" version="1.1" x="0px" y="0px" width="99px" height="93px" viewBox="0 0 99 93" enable-background="new 0 0 99 93" xml:space="preserve" class="replace-inline svg-icon portrait replaced-svg">
<g id="Layer_2">
</g>
    <g id="Layer_1">
	<g>
		<path fill="#ff0000" d="M87.404,84.255v-1.506h0.561l-0.67-3.161l-2.765-2.354v-1.396l-6.623-7.35h-3.3l-0.014-7.349h-2.656L90.799,45.07    l-0.741-7.664L27.896,20.518l-6.281,8.499V13.182H10.391v18.613h11.606l5.625-7.596l48.26,12.413v1.383L60.646,56.909    l-5.268,3.231l0.562,8.636L45.223,69.46l-5.446,2.436l-4.243,5.338l-3.038,2.231l-0.93,3.134h0.505v1.765h-4.063v0.808h8.185    v-0.808h-3.67v-1.765h0.576l0.547-1.889l4.257-3.258l-1.902,2.382l-0.246,1.779h0.463v1.204h-2.791v0.808h6.924v-0.808h-3.652    v-1.204h0.453l0.245-1.505l8.074-8.103l11.909,0.903l1.067-0.045c0.934-1.268,2.443-2.096,4.152-2.096    c1.552,0,2.937,0.681,3.879,1.753l9.486-0.405l6.882,5.776v3.586h0.346v1.094h-2.712v0.822h5.611v-0.822h-2.421v-1.094h0.287    V78.78l1.969,1.629l0.589,2.34h0.398v1.506l-4.216,0.014v0.848l8.349-0.013v-0.849H87.404z M19.695,29.943h-7.25V17.287h7.25    V29.943z M78.235,37.201l5.952,1.575l0.479,3.42L65.095,54.24L78.235,37.201z M60.646,63.205l-2.258-2.498l27.511-17.244    l2.529,1.505L71.666,59.612L60.646,63.205z"></path>
        <path fill="#ff0000" d="M62.569,71.353c-2.664,0-4.823,2.158-4.823,4.822c0,2.663,2.159,4.822,4.823,4.822c2.663,0,4.821-2.159,4.821-4.822    C67.391,73.511,65.232,71.353,62.569,71.353z M62.569,79.34c-1.749,0-3.166-1.417-3.166-3.165s1.417-3.165,3.166-3.165    c1.747,0,3.163,1.417,3.163,3.165S64.316,79.34,62.569,79.34z"></path>
	</g>
</g>
</svg>