<svg xmlns="http://www.w3.org/2000/svg" xmlns:xlink="http://www.w3.org/1999/xlink" version="1.1" x="0px" y="0px" width="86px" height="77px" viewBox="0 0 86 77" enable-background="new 0 0 86 77" xml:space="preserve" class="replace-inline svg-icon portrait replaced-svg">
<g id="Layer_2">
</g>
<g id="Layer_1">
	<g>
		<rect fill="#ff0000" x="27.625" y="55.125" fill-rule="evenodd" clip-rule="evenodd" width="24" height="3.5"></rect>

			<circle fill-rule="evenodd" clip-rule="evenodd" fill="none" stroke="#ff0000" stroke-width="0.5" stroke-miterlimit="10" cx="29.875" cy="62.755" r="2.156"></circle>
		<g>
			<circle fill="#ff0000" fill-rule="evenodd" clip-rule="evenodd" cx="29.875" cy="62.755" r="1.417"></circle>
		</g>
		<g>
			<path fill="#ff0000" fill-rule="evenodd" clip-rule="evenodd" d="M49.375,59.125c-0.043,0-20,0.051-20,0.051     c-1.763,0.245-3.125,1.743-3.125,3.574s1.362,3.329,3.125,3.574c0,0,19.957,0.051,20,0.051c2.002,0,3.625-1.623,3.625-3.625     S51.377,59.125,49.375,59.125z M49.786,63.484c-0.007,0-12.115-0.007-17.746-0.011c-0.304,0.91-1.154,1.573-2.165,1.573     c-1.264,0-2.292-1.029-2.292-2.292s1.028-2.292,2.292-2.292c0.934,0,1.736,0.563,2.093,1.367     c5.601-0.004,17.811-0.011,17.818-0.011c0.46,0,0.833,0.374,0.833,0.833S50.246,63.484,49.786,63.484z"></path>
		</g>
		<polygon fill="#ff0000" fill-rule="evenodd" clip-rule="evenodd" points="26.938,55.25 16.125,65.812 16.062,66.688 11.505,71.375 7.875,71.396     7.875,72.5 17.375,72.5 17.375,71.438 13.75,71.438 17.375,67.688 18,67.562 26.87,58.567   "></polygon>
		<polygon fill="#ff0000" fill-rule="evenodd" clip-rule="evenodd" points="52.251,55.25 63.063,65.812 63.126,66.688 67.938,71.375 71.312,71.376     71.313,72.5 61.813,72.5 61.813,71.438 65.438,71.438 61.813,67.688 61.188,67.562 52.318,58.567   "></polygon>
		<polygon fill="#ff0000" points="39.812,51.062 39.812,54.5 52.438,54.5 58.562,60.562 58.562,51.938 50.875,51.062   "></polygon>
		<polygon fill="#ff0000" points="27.312,46.625 39.317,46.625 39.317,54.5 24.875,54.5 25.312,52 31.188,51.688 31.312,50.562 28.25,50.438   "></polygon>
		<path fill="#ff0000" d="M82.75,20l-0.125-2.125L32.188,7.188l-2.562-1.312L15.438,19.688l-0.625-0.438v5.25l1.062,0.875L31.75,11.438L57.312,17    L59,18.688l0.812,0.062l12.5,9.75l-1.25,5.375l-40.625,5.75L27,39.562l-2.375,2.688l5.438,3.562h3.25L33,44.562l12.562-1.625    l-9.625,2.812l3.875,0.062l13.25-3.625l21.812-2.812l4.375-2.812l-1.438-5.125l2.562-9.75L82.75,20z M72.812,27.312L61,18.5    l2.188-0.312l0.5-0.688L70,19.062l-0.25,1.062l6.812,1.812L72.812,27.312z"></path>
		<path fill="#ff0000" d="M3.25,9.062V24.5h10.812V9.062H3.25z M11.5,22.125H4.75v-5.438l6.75,0.07V22.125z M11.5,15.25H4.75v-4.812L11.5,10.5    V15.25z"></path>
	</g>
</g>
</svg>